<svg viewBox="0 0 14 14" xmlns="http://www.w3.org/2000/svg"><path d="m4.0224969 6.587203h.205707v-2.41612c.00049-.006.0019-.0118.0019-.018v-.35676c0-.63602.196314-1.15155.583531-1.53238.800924-.78804 2.169006-.77731 2.192104-.77408.01626-.001 1.372905-.0207 2.177417.76673.389864.38157.587629.89949.587629 1.53973v.37723c0 .004.000961.007.000961.0107v2.40287h.205707c.5062561 0 .9165901-.41033.9165901-.91647v-.88085c0-.4072-.265883-.75192-.633492-.87122v-.12217c0-.77685-.247353-1.41262-.7347071-1.88975-.95014-.92992998-2.46785-.90585-2.520929-.90657-.06378-.00060998-1.582945-.0193-2.532634.91237-.485668.47665-.732061 1.11049-.732061 1.88385v.12169c-.368079.11927-.634217.46425-.634217.87168v.88085c.00002.50628.410452.91661.916473.91661zm8.1621591 5.4486c-.112902-2.14469-2.040456-3.03191-2.040456-3.03191-.4605311-.21533-1.2954941-.63686-1.8429271-.91551.701375-.76734.908532-2.01842.940787-2.19644.146373-.80549.07271-1.80247.07271-1.80247-.133843-1.93873-2.091241-1.96918-2.296222-1.96715-.01131 0-.01867.00012-.01867.00012s-.0063-.00012-.01553 0c-.185844-.002-2.16479.0172-2.299359 1.96703 0 0-.07367.99686.07271 1.80247.0095.0519.03431.19643.08137.39191.368687.484.937885.72135 1.405043.83751.05874-.0571.138784-.0926.227491-.0926h.851472c.180197 0 .32608.146.32608.3262 0 .18031-.145883.32643-.32608.32643h-.851472c-.134452 0-.249393-.0811-.299589-.19681-.348452-.0847-.751689-.23231-1.111592-.48615.143589.37276.348217.77262.638296 1.09004-.547433.27865-1.382043.70004-1.842926.91539 0 0-1.927299.88722-2.040457 3.03191 0 0-.03347.35665.642394.49169 0 0 2.070535.47255 4.542385.47255 2.472085 0 4.5426201-.47255 4.5426201-.47255.675747-.13504.641923-.49169.641923-.49169z"/></svg>